<svg width="178" height="17" viewBox="0 0 178 17" fill="none" xmlns="http://www.w3.org/2000/svg">
<path d="M11.1947 0.599999H14.0547V16H11.1947V0.599999ZM3.23073 16H0.370734V0.599999H3.23073V16ZM11.4147 9.4H2.98873V6.958H11.4147V9.4ZM21.5279 7.002H29.1839V9.356H21.5279V7.002ZM21.7479 13.602H30.4379V16H18.8879V0.599999H30.1299V2.998H21.7479V13.602ZM32.1549 16L39.0849 0.599999H41.9009L48.8529 16H45.8609L39.8989 2.118H41.0429L35.1029 16H32.1549ZM35.3449 12.436L36.1149 10.192H44.4309L45.2009 12.436H35.3449ZM51.5181 16V0.599999H54.3781V13.58H62.4301V16H51.5181ZM67.0792 16V3.02H61.9752V0.599999H75.0432V3.02H69.9392V16H67.0792ZM88.7203 0.599999H91.5803V16H88.7203V0.599999ZM80.7563 16H77.8963V0.599999H80.7563V16ZM88.9403 9.4H80.5143V6.958H88.9403V9.4Z" fill="#048741"/>
<path d="M103.541 16.22C102.368 16.22 101.275 16.0293 100.263 15.648C99.2661 15.252 98.3935 14.702 97.6455 13.998C96.9121 13.2793 96.3401 12.436 95.9295 11.468C95.5188 10.5 95.3135 9.444 95.3135 8.3C95.3135 7.156 95.5188 6.1 95.9295 5.132C96.3401 4.164 96.9195 3.328 97.6675 2.624C98.4155 1.90533 99.2881 1.35533 100.285 0.973999C101.283 0.577999 102.375 0.379999 103.563 0.379999C104.825 0.379999 105.976 0.599999 107.017 1.04C108.059 1.46533 108.939 2.10333 109.657 2.954L107.809 4.692C107.252 4.09067 106.629 3.64333 105.939 3.35C105.25 3.042 104.502 2.888 103.695 2.888C102.889 2.888 102.148 3.02 101.473 3.284C100.813 3.548 100.234 3.922 99.7355 4.406C99.2515 4.89 98.8701 5.462 98.5915 6.122C98.3275 6.782 98.1955 7.508 98.1955 8.3C98.1955 9.092 98.3275 9.818 98.5915 10.478C98.8701 11.138 99.2515 11.71 99.7355 12.194C100.234 12.678 100.813 13.052 101.473 13.316C102.148 13.58 102.889 13.712 103.695 13.712C104.502 13.712 105.25 13.5653 105.939 13.272C106.629 12.964 107.252 12.502 107.809 11.886L109.657 13.646C108.939 14.482 108.059 15.12 107.017 15.56C105.976 16 104.817 16.22 103.541 16.22ZM123.929 0.599999H126.789V16H123.929V0.599999ZM115.965 16H113.105V0.599999H115.965V16ZM124.149 9.4H115.723V6.958H124.149V9.4ZM134.262 7.002H141.918V9.356H134.262V7.002ZM134.482 13.602H143.172V16H131.622V0.599999H142.864V2.998H134.482V13.602ZM154.195 16.22C153.021 16.22 151.929 16.0293 150.917 15.648C149.919 15.252 149.047 14.702 148.299 13.998C147.565 13.2793 146.993 12.436 146.583 11.468C146.172 10.5 145.967 9.444 145.967 8.3C145.967 7.156 146.172 6.1 146.583 5.132C146.993 4.164 147.573 3.328 148.321 2.624C149.069 1.90533 149.941 1.35533 150.939 0.973999C151.936 0.577999 153.029 0.379999 154.217 0.379999C155.478 0.379999 156.629 0.599999 157.671 1.04C158.712 1.46533 159.592 2.10333 160.311 2.954L158.463 4.692C157.905 4.09067 157.282 3.64333 156.593 3.35C155.903 3.042 155.155 2.888 154.349 2.888C153.542 2.888 152.801 3.02 152.127 3.284C151.467 3.548 150.887 3.922 150.389 4.406C149.905 4.89 149.523 5.462 149.245 6.122C148.981 6.782 148.849 7.508 148.849 8.3C148.849 9.092 148.981 9.818 149.245 10.478C149.523 11.138 149.905 11.71 150.389 12.194C150.887 12.678 151.467 13.052 152.127 13.316C152.801 13.58 153.542 13.712 154.349 13.712C155.155 13.712 155.903 13.5653 156.593 13.272C157.282 12.964 157.905 12.502 158.463 11.886L160.311 13.646C159.592 14.482 158.712 15.12 157.671 15.56C156.629 16 155.471 16.22 154.195 16.22ZM166.31 12.37L166.156 8.982L174.23 0.599999H177.442L170.732 7.728L169.148 9.466L166.31 12.37ZM163.758 16V0.599999H166.618V16H163.758ZM174.494 16L168.598 8.982L170.49 6.892L177.838 16H174.494Z" fill="#34453C"/>
</svg>
