<svg width="152" height="69" viewBox="0 0 152 69" fill="none" xmlns="http://www.w3.org/2000/svg">
<circle cx="14.5" cy="66.5" r="2.5" fill="white"/>
<path d="M16.5734 58.3474C23.3223 57.3452 28.5 51.5277 28.5 44.5C28.5 36.768 22.232 30.5 14.5 30.5C6.76801 30.5 0.5 36.768 0.5 44.5C0.5 51.5277 5.67766 57.3452 12.4265 58.3474C13.1034 58.448 13.7958 58.5 14.5 58.5C15.2042 58.5 15.8966 58.448 16.5734 58.3474Z" fill="white" stroke="#FC1827"/>
<circle cx="14.5" cy="66.5" r="1.5" fill="#FC1827"/>
<g filter="url(#filter0_d_116_8061)">
<rect x="30" width="115" height="39" rx="8.07692" fill="#048741"/>
<path d="M42.98 25V14.92H44.009V19.463H49.581V14.92H50.603V25H49.581V20.45H44.009V25H42.98ZM56.463 25.21C55.7257 25.21 55.0863 25.0467 54.545 24.72C54.0083 24.3933 53.5907 23.9337 53.292 23.341C52.9933 22.7483 52.844 22.053 52.844 21.255C52.844 20.429 52.991 19.715 53.285 19.113C53.579 18.511 53.992 18.0467 54.524 17.72C55.0607 17.3933 55.693 17.23 56.421 17.23C57.1677 17.23 57.8047 17.4027 58.332 17.748C58.8593 18.0887 59.2583 18.5787 59.529 19.218C59.7997 19.8573 59.9233 20.6203 59.9 21.507H58.85V21.143C58.8313 20.163 58.619 19.4233 58.213 18.924C57.8117 18.4247 57.2237 18.175 56.449 18.175C55.637 18.175 55.014 18.4387 54.58 18.966C54.1507 19.4933 53.936 20.2447 53.936 21.22C53.936 22.172 54.1507 22.9117 54.58 23.439C55.014 23.9617 55.6277 24.223 56.421 24.223C56.9623 24.223 57.4337 24.0993 57.835 23.852C58.241 23.6 58.5607 23.2383 58.794 22.767L59.753 23.138C59.4543 23.796 59.0133 24.307 58.43 24.671C57.8513 25.0303 57.1957 25.21 56.463 25.21ZM53.572 21.507V20.646H59.347V21.507H53.572ZM64.1797 25.21C63.6104 25.21 63.1321 25.1073 62.7447 24.902C62.3621 24.6967 62.0751 24.4237 61.8837 24.083C61.6924 23.7423 61.5967 23.3713 61.5967 22.97C61.5967 22.5593 61.6784 22.2093 61.8417 21.92C62.0097 21.626 62.2361 21.3857 62.5207 21.199C62.8101 21.0123 63.1437 20.87 63.5217 20.772C63.9044 20.6787 64.3267 20.597 64.7887 20.527C65.2554 20.4523 65.7104 20.3893 66.1537 20.338C66.6017 20.282 66.9937 20.2283 67.3297 20.177L66.9657 20.401C66.9797 19.6543 66.8351 19.1013 66.5317 18.742C66.2284 18.3827 65.7011 18.203 64.9497 18.203C64.4317 18.203 63.9931 18.3197 63.6337 18.553C63.2791 18.7863 63.0294 19.155 62.8847 19.659L61.8837 19.365C62.0564 18.6883 62.4041 18.1633 62.9267 17.79C63.4494 17.4167 64.1284 17.23 64.9637 17.23C65.6544 17.23 66.2401 17.3607 66.7207 17.622C67.2061 17.8787 67.5491 18.252 67.7497 18.742C67.8431 18.9613 67.9037 19.2063 67.9317 19.477C67.9597 19.7477 67.9737 20.023 67.9737 20.303V25H67.0567V23.103L67.3227 23.215C67.0661 23.8637 66.6671 24.3583 66.1257 24.699C65.5844 25.0397 64.9357 25.21 64.1797 25.21ZM64.2987 24.321C64.7794 24.321 65.1994 24.2347 65.5587 24.062C65.9181 23.8893 66.2074 23.6537 66.4267 23.355C66.6461 23.0517 66.7884 22.711 66.8537 22.333C66.9097 22.0903 66.9401 21.8243 66.9447 21.535C66.9494 21.241 66.9517 21.0217 66.9517 20.877L67.3437 21.08C66.9937 21.1267 66.6134 21.1733 66.2027 21.22C65.7967 21.2667 65.3954 21.3203 64.9987 21.381C64.6067 21.4417 64.2521 21.514 63.9347 21.598C63.7201 21.6587 63.5124 21.745 63.3117 21.857C63.1111 21.9643 62.9454 22.109 62.8147 22.291C62.6887 22.473 62.6257 22.6993 62.6257 22.97C62.6257 23.1893 62.6794 23.4017 62.7867 23.607C62.8987 23.8123 63.0761 23.9827 63.3187 24.118C63.5661 24.2533 63.8927 24.321 64.2987 24.321ZM70.636 25V14.71H71.665V25H70.636ZM78.5796 25C78.1549 25.0887 77.7349 25.1237 77.3196 25.105C76.9089 25.0863 76.5403 24.9977 76.2136 24.839C75.8916 24.6803 75.6466 24.433 75.4786 24.097C75.3433 23.817 75.2686 23.5347 75.2546 23.25C75.2453 22.9607 75.2406 22.6317 75.2406 22.263V15.34H76.2626V22.221C76.2626 22.5383 76.2649 22.8043 76.2696 23.019C76.2789 23.229 76.3279 23.4157 76.4166 23.579C76.5846 23.8917 76.8506 24.0783 77.2146 24.139C77.5833 24.1997 78.0383 24.1857 78.5796 24.097V25ZM73.6236 18.322V17.44H78.5796V18.322H73.6236ZM86.2291 25V21.143C86.2291 20.723 86.1894 20.338 86.1101 19.988C86.0307 19.6333 85.9024 19.3253 85.7251 19.064C85.5524 18.798 85.3261 18.5927 85.0461 18.448C84.7707 18.3033 84.4347 18.231 84.0381 18.231C83.6741 18.231 83.3521 18.294 83.0721 18.42C82.7967 18.546 82.5634 18.728 82.3721 18.966C82.1854 19.1993 82.0431 19.484 81.9451 19.82C81.8471 20.156 81.7981 20.5387 81.7981 20.968L81.0701 20.807C81.0701 20.0323 81.2054 19.3813 81.4761 18.854C81.7467 18.3267 82.1201 17.9277 82.5961 17.657C83.0721 17.3863 83.6181 17.251 84.2341 17.251C84.6867 17.251 85.0811 17.321 85.4171 17.461C85.7577 17.601 86.0447 17.79 86.2781 18.028C86.5161 18.266 86.7074 18.539 86.8521 18.847C86.9967 19.1503 87.1017 19.4747 87.1671 19.82C87.2324 20.1607 87.2651 20.5013 87.2651 20.842V25H86.2291ZM80.7621 25V14.92H81.6931V20.611H81.7981V25H80.7621ZM93.8626 25.21C92.8592 25.21 92.0122 24.9883 91.3216 24.545C90.6309 24.097 90.1082 23.4787 89.7536 22.69C89.3989 21.9013 89.2216 20.9913 89.2216 19.96C89.2216 18.9287 89.3989 18.0187 89.7536 17.23C90.1082 16.4413 90.6309 15.8253 91.3216 15.382C92.0122 14.934 92.8592 14.71 93.8626 14.71C95.0339 14.71 95.9906 15.011 96.7326 15.613C97.4746 16.2103 97.9832 17.013 98.2586 18.021L97.2086 18.294C96.9939 17.496 96.6089 16.8637 96.0536 16.397C95.4982 15.9303 94.7679 15.697 93.8626 15.697C93.0739 15.697 92.4182 15.8767 91.8956 16.236C91.3729 16.5953 90.9786 17.097 90.7126 17.741C90.4512 18.3803 90.3159 19.12 90.3066 19.96C90.3019 20.8 90.4302 21.5397 90.6916 22.179C90.9576 22.8183 91.3542 23.32 91.8816 23.684C92.4136 24.0433 93.0739 24.223 93.8626 24.223C94.7679 24.223 95.4982 23.9897 96.0536 23.523C96.6089 23.0517 96.9939 22.4193 97.2086 21.626L98.2586 21.899C97.9832 22.907 97.4746 23.712 96.7326 24.314C95.9906 24.9113 95.0339 25.21 93.8626 25.21ZM105.963 25V21.143C105.963 20.723 105.923 20.338 105.844 19.988C105.765 19.6333 105.636 19.3253 105.459 19.064C105.286 18.798 105.06 18.5927 104.78 18.448C104.505 18.3033 104.169 18.231 103.772 18.231C103.408 18.231 103.086 18.294 102.806 18.42C102.531 18.546 102.297 18.728 102.106 18.966C101.919 19.1993 101.777 19.484 101.679 19.82C101.581 20.156 101.532 20.5387 101.532 20.968L100.804 20.807C100.804 20.0323 100.939 19.3813 101.21 18.854C101.481 18.3267 101.854 17.9277 102.33 17.657C102.806 17.3863 103.352 17.251 103.968 17.251C104.421 17.251 104.815 17.321 105.151 17.461C105.492 17.601 105.779 17.79 106.012 18.028C106.25 18.266 106.441 18.539 106.586 18.847C106.731 19.1503 106.836 19.4747 106.901 19.82C106.966 20.1607 106.999 20.5013 106.999 20.842V25H105.963ZM100.496 25V14.92H101.427V20.611H101.532V25H100.496ZM112.715 25.21C111.977 25.21 111.338 25.0467 110.797 24.72C110.26 24.3933 109.842 23.9337 109.544 23.341C109.245 22.7483 109.096 22.053 109.096 21.255C109.096 20.429 109.243 19.715 109.537 19.113C109.831 18.511 110.244 18.0467 110.776 17.72C111.312 17.3933 111.945 17.23 112.673 17.23C113.419 17.23 114.056 17.4027 114.584 17.748C115.111 18.0887 115.51 18.5787 115.781 19.218C116.051 19.8573 116.175 20.6203 116.152 21.507H115.102V21.143C115.083 20.163 114.871 19.4233 114.465 18.924C114.063 18.4247 113.475 18.175 112.701 18.175C111.889 18.175 111.266 18.4387 110.832 18.966C110.402 19.4933 110.188 20.2447 110.188 21.22C110.188 22.172 110.402 22.9117 110.832 23.439C111.266 23.9617 111.879 24.223 112.673 24.223C113.214 24.223 113.685 24.0993 114.087 23.852C114.493 23.6 114.812 23.2383 115.046 22.767L116.005 23.138C115.706 23.796 115.265 24.307 114.682 24.671C114.103 25.0303 113.447 25.21 112.715 25.21ZM109.824 21.507V20.646H115.599V21.507H109.824ZM121.541 25.21C120.78 25.21 120.136 25.0397 119.609 24.699C119.082 24.3583 118.68 23.8893 118.405 23.292C118.134 22.69 117.994 21.9993 117.985 21.22C117.994 20.4267 118.139 19.7313 118.419 19.134C118.699 18.532 119.103 18.0653 119.63 17.734C120.157 17.398 120.797 17.23 121.548 17.23C122.313 17.23 122.978 17.4167 123.543 17.79C124.112 18.1633 124.502 18.6743 124.712 19.323L123.704 19.645C123.527 19.1923 123.244 18.8423 122.857 18.595C122.474 18.343 122.036 18.217 121.541 18.217C120.986 18.217 120.526 18.3453 120.162 18.602C119.798 18.854 119.527 19.2063 119.35 19.659C119.173 20.1117 119.082 20.632 119.077 21.22C119.086 22.1253 119.296 22.8533 119.707 23.404C120.118 23.95 120.729 24.223 121.541 24.223C122.054 24.223 122.491 24.1063 122.85 23.873C123.214 23.635 123.489 23.2897 123.676 22.837L124.712 23.145C124.432 23.817 124.021 24.3303 123.48 24.685C122.939 25.035 122.292 25.21 121.541 25.21ZM126.85 25L126.857 14.92H127.893V21.08L131.267 17.44H132.639L129.097 21.22L133.101 25H131.603L127.893 21.36V25H126.85Z" fill="white"/>
</g>
<defs>
<filter id="filter0_d_116_8061" x="23.5385" y="0" width="127.923" height="51.9231" filterUnits="userSpaceOnUse" color-interpolation-filters="sRGB">
<feFlood flood-opacity="0" result="BackgroundImageFix"/>
<feColorMatrix in="SourceAlpha" type="matrix" values="0 0 0 0 0 0 0 0 0 0 0 0 0 0 0 0 0 0 127 0" result="hardAlpha"/>
<feOffset dy="6.46154"/>
<feGaussianBlur stdDeviation="3.23077"/>
<feColorMatrix type="matrix" values="0 0 0 0 0 0 0 0 0 0 0 0 0 0 0 0 0 0 0.25 0"/>
<feBlend mode="normal" in2="BackgroundImageFix" result="effect1_dropShadow_116_8061"/>
<feBlend mode="normal" in="SourceGraphic" in2="effect1_dropShadow_116_8061" result="shape"/>
</filter>
</defs>
</svg>
