<svg width="15" height="16" viewBox="0 0 15 16" fill="none" xmlns="http://www.w3.org/2000/svg">
<path d="M9.86653 15.4776C9.66384 15.4776 9.5036 15.3173 9.5036 15.1146C9.5036 14.9119 9.66384 14.7517 9.86653 14.7517C10.0692 14.7517 10.2287 14.9119 10.2287 15.1146C10.2287 15.3173 10.0692 15.4776 9.86653 15.4776ZM13.3649 3.47952L8.4587 0.319945C7.79722 -0.106648 6.94403 -0.106648 6.28256 0.319945L1.37564 3.47952C0.512205 4.03489 0 4.97442 0 5.99883V12.2111C0 13.9614 1.41881 15.3919 3.1786 15.3919H5.48279C6.67696 15.3919 7.64795 14.4209 7.64795 13.2253V12.2748C9.42896 12.1255 11.338 10.5033 11.818 7.07666C11.8824 6.58567 11.7331 6.08445 11.4127 5.71054C11.0929 5.33736 10.6239 5.13394 10.1329 5.13394H9.70628V5.00589C9.70628 4.72857 9.48238 4.50466 9.20505 4.50466C8.92773 4.50466 8.70382 4.72857 8.70382 5.00589V5.79615C8.70382 6.07347 8.92773 6.29738 9.20505 6.29738C9.48238 6.29738 9.70628 6.07347 9.70628 5.79615V5.6681H10.1329C10.4636 5.6681 10.7834 5.81737 11.0073 6.06249C11.2319 6.31933 11.3278 6.66031 11.2846 7.00202C10.8368 10.2794 9.00237 11.7524 7.38087 11.7524C5.76011 11.7524 3.92495 10.2794 3.47714 7.00202C3.4347 6.66031 3.53056 6.31933 3.75446 6.06249C3.97837 5.80639 4.29886 5.6681 4.62887 5.6681H5.05619V5.79615C5.05619 6.07347 5.2801 6.29738 5.55742 6.29738C5.83474 6.29738 6.05865 6.07347 6.05865 5.79615V5.00589C6.05865 4.72857 5.83474 4.50466 5.55742 4.50466C5.2801 4.50466 5.05619 4.72857 5.05619 5.00589V5.13394H4.62887C4.13862 5.13394 3.66958 5.3476 3.34909 5.71054C3.02933 6.08445 2.88005 6.57543 2.94371 7.07666C3.41348 10.5033 5.33352 12.1255 7.11453 12.2748V13.2143C7.11453 14.1107 6.38939 14.8366 5.49303 14.8366H3.16762C1.71735 14.8366 0.533425 13.6519 0.533425 12.2002V5.98786C0.533425 5.14492 0.949042 4.37661 1.66393 3.92806L6.57013 0.76849C7.06111 0.458972 7.67941 0.458972 8.1704 0.76849L13.0766 3.92806C13.7812 4.37661 14.2078 5.15589 14.2078 5.98786V12.2002C14.2078 13.6519 13.0239 14.8366 11.5729 14.8366H10.73C10.6129 14.4736 10.2719 14.2073 9.87677 14.2073C9.38652 14.2073 8.98115 14.6127 8.98115 15.1036C8.98115 15.5946 9.38652 16 9.87677 16C10.2821 16 10.6129 15.7337 10.73 15.3707H11.5729C13.3224 15.3707 14.7515 13.9512 14.7515 12.1899V5.98786C14.7405 4.96345 14.2291 4.02392 13.3649 3.47952Z" fill="#048741"/>
</svg>
