<svg width="281" height="79" viewBox="0 0 281 79" fill="none" xmlns="http://www.w3.org/2000/svg">
<path d="M100.627 31.2062H103.716V47.8347H100.627V31.2062ZM92.0281 47.8347H88.94V31.2062H92.0281V47.8347ZM100.865 40.7082H91.7668V38.0714H100.865V40.7082ZM111.785 38.1189H120.052V40.6607H111.785V38.1189ZM112.023 45.2454H121.406V47.8347H108.934V31.2062H121.073V33.7955H112.023V45.2454ZM123.26 47.8347L130.742 31.2062H133.783L141.29 47.8347H138.059L131.621 32.8453H132.857L126.443 47.8347H123.26ZM126.704 43.9864L127.536 41.5634H136.515L137.346 43.9864H126.704ZM144.167 47.8347V31.2062H147.256V45.2217H155.95V47.8347H144.167ZM160.97 47.8347V33.8193H155.459V31.2062H169.569V33.8193H164.058V47.8347H160.97ZM184.337 31.2062H187.425V47.8347H184.337V31.2062ZM175.738 47.8347H172.65V31.2062H175.738V47.8347ZM184.575 40.7082H175.477V38.0714H184.575V40.7082Z" fill="#048741"/>
<path d="M200.341 48.0723C199.074 48.0723 197.894 47.8664 196.801 47.4546C195.724 47.027 194.782 46.4332 193.975 45.673C193.183 44.897 192.565 43.9864 192.122 42.9412C191.678 41.896 191.457 40.7557 191.457 39.5205C191.457 38.2852 191.678 37.145 192.122 36.0998C192.565 35.0545 193.191 34.1518 193.998 33.3917C194.806 32.6157 195.748 32.0218 196.825 31.6101C197.902 31.1825 199.082 30.9687 200.365 30.9687C201.727 30.9687 202.97 31.2062 204.094 31.6813C205.219 32.1406 206.169 32.8295 206.945 33.748L204.949 35.6247C204.348 34.9754 203.674 34.4923 202.93 34.1756C202.186 33.843 201.378 33.6767 200.507 33.6767C199.636 33.6767 198.836 33.8193 198.108 34.1043C197.395 34.3894 196.77 34.7932 196.231 35.3158C195.709 35.8384 195.297 36.4561 194.996 37.1687C194.711 37.8814 194.568 38.6653 194.568 39.5205C194.568 40.3757 194.711 41.1596 194.996 41.8722C195.297 42.5849 195.709 43.2025 196.231 43.7251C196.77 44.2477 197.395 44.6515 198.108 44.9366C198.836 45.2217 199.636 45.3642 200.507 45.3642C201.378 45.3642 202.186 45.2058 202.93 44.8891C203.674 44.5565 204.348 44.0577 204.949 43.3925L206.945 45.2929C206.169 46.1956 205.219 46.8845 204.094 47.3596C202.97 47.8347 201.719 48.0723 200.341 48.0723ZM222.354 31.2062H225.442V47.8347H222.354V31.2062ZM213.755 47.8347H210.667V31.2062H213.755V47.8347ZM222.592 40.7082H213.494V38.0714H222.592V40.7082ZM233.512 38.1189H241.778V40.6607H233.512V38.1189ZM233.749 45.2454H243.133V47.8347H230.661V31.2062H242.8V33.7955H233.749V45.2454ZM255.035 48.0723C253.768 48.0723 252.588 47.8664 251.495 47.4546C250.418 47.027 249.476 46.4332 248.668 45.673C247.877 44.897 247.259 43.9864 246.816 42.9412C246.372 41.896 246.15 40.7557 246.15 39.5205C246.15 38.2852 246.372 37.145 246.816 36.0998C247.259 35.0545 247.885 34.1518 248.692 33.3917C249.5 32.6157 250.442 32.0218 251.519 31.6101C252.596 31.1825 253.776 30.9687 255.059 30.9687C256.42 30.9687 257.664 31.2062 258.788 31.6813C259.912 32.1406 260.863 32.8295 261.639 33.748L259.643 35.6247C259.041 34.9754 258.368 34.4923 257.624 34.1756C256.88 33.843 256.072 33.6767 255.201 33.6767C254.33 33.6767 253.53 33.8193 252.802 34.1043C252.089 34.3894 251.464 34.7932 250.925 35.3158C250.403 35.8384 249.991 36.4561 249.69 37.1687C249.405 37.8814 249.262 38.6653 249.262 39.5205C249.262 40.3757 249.405 41.1596 249.69 41.8722C249.991 42.5849 250.403 43.2025 250.925 43.7251C251.464 44.2477 252.089 44.6515 252.802 44.9366C253.53 45.2217 254.33 45.3642 255.201 45.3642C256.072 45.3642 256.88 45.2058 257.624 44.8891C258.368 44.5565 259.041 44.0577 259.643 43.3925L261.639 45.2929C260.863 46.1956 259.912 46.8845 258.788 47.3596C257.664 47.8347 256.413 48.0723 255.035 48.0723ZM268.116 43.9151L267.95 40.2569L276.668 31.2062H280.136L272.891 38.9028L271.181 40.7795L268.116 43.9151ZM265.361 47.8347V31.2062H268.449V47.8347H265.361ZM276.953 47.8347L270.587 40.2569L272.63 38.0002L280.564 47.8347H276.953Z" fill="white"/>
<path d="M48.716 76.4204C47.7152 76.4204 46.924 75.6292 46.924 74.6284C46.924 73.6277 47.7152 72.8364 48.716 72.8364C49.7168 72.8364 50.5044 73.6277 50.5044 74.6284C50.5044 75.6292 49.7168 76.4204 48.716 76.4204ZM65.9891 17.1801L41.7648 1.57973C38.4988 -0.526576 34.2862 -0.526576 31.0201 1.57973L6.7922 17.1801C2.52901 19.9223 0 24.5612 0 29.6192V60.2925C0 68.9345 7.00536 75.9977 15.6943 75.9977H27.0713C32.9675 75.9977 37.7618 71.2034 37.7618 65.3V60.6069C46.5555 59.8698 55.9815 51.8601 58.3515 34.941C58.6695 32.5168 57.9324 30.0419 56.35 28.1958C54.7712 26.3532 52.4553 25.3488 50.0311 25.3488H47.9248V24.7166C47.9248 23.3473 46.8192 22.2418 45.4499 22.2418C44.0807 22.2418 42.9751 23.3473 42.9751 24.7166V28.6185C42.9751 29.9878 44.0807 31.0933 45.4499 31.0933C46.8192 31.0933 47.9248 29.9878 47.9248 28.6185V27.9862H50.0311C51.6641 27.9862 53.2429 28.7232 54.3485 29.9336C55.4576 31.2017 55.9309 32.8853 55.7177 34.5725C53.5067 50.7546 44.4492 58.0273 36.4431 58.0273C28.4405 58.0273 19.3795 50.7546 17.1684 34.5725C16.9588 32.8853 17.4321 31.2017 18.5377 29.9336C19.6432 28.6691 21.2256 27.9862 22.855 27.9862H24.965V28.6185C24.965 29.9878 26.0705 31.0933 27.4398 31.0933C28.8091 31.0933 29.9146 29.9878 29.9146 28.6185V24.7166C29.9146 23.3473 28.8091 22.2418 27.4398 22.2418C26.0705 22.2418 24.965 23.3473 24.965 24.7166V25.3488H22.855C20.4344 25.3488 18.1186 26.4038 16.5361 28.1958C14.9573 30.0419 14.2203 32.4662 14.5346 34.941C16.8541 51.8601 26.3342 59.8698 35.128 60.6069V65.2458C35.128 69.6716 31.5476 73.2555 27.1218 73.2555H15.6401C8.47941 73.2555 2.63378 67.4063 2.63378 60.2383V29.565C2.63378 25.403 4.6859 21.6095 8.21567 19.3948L32.44 3.79442C34.8642 2.26617 37.9171 2.26617 40.3413 3.79442L64.5657 19.3948C68.0449 21.6095 70.1512 25.4572 70.1512 29.565V60.2383C70.1512 67.4063 64.3055 73.2555 57.1412 73.2555H52.9792C52.4011 71.4635 50.7175 70.1485 48.7666 70.1485C46.3459 70.1485 44.3444 72.15 44.3444 74.5742C44.3444 76.9985 46.3459 79 48.7666 79C50.7681 79 52.4011 77.6849 52.9792 75.8929H57.1412C65.7796 75.8929 72.8355 68.8839 72.8355 60.1878V29.565C72.7813 24.507 70.2559 19.8681 65.9891 17.1801Z" fill="#048741"/>
</svg>
