<svg width="134" height="17" viewBox="0 0 134 17" fill="none" xmlns="http://www.w3.org/2000/svg">
<path d="M-0.00326547 0.599999V16H3.14273V5.616L7.23473 14.438H9.50073L13.5927 5.616V16H16.7167V0.599999H12.8447L8.37874 10.016L3.89073 0.599999H-0.00326547ZM20.8343 0.599999V16H32.8023V13.118H24.3103V9.708H31.7243V6.826H24.3103V3.482H32.5603V0.599999H20.8343ZM42.7702 0.599999H36.2362V16H42.6382C47.5002 16 50.8662 12.832 50.8662 8.3C50.8662 3.746 47.5442 0.599999 42.7702 0.599999ZM42.8582 13.074H39.7122V3.526H42.7042C45.3442 3.526 47.3242 5.484 47.3242 8.322C47.3242 11.138 45.4322 13.074 42.8582 13.074Z" fill="#048741"/>
<path d="M65.0051 5.506L67.0291 3.042C65.5111 1.48 63.1791 0.489999 60.9571 0.489999C56.2931 0.489999 52.7511 3.834 52.7511 8.278C52.7511 12.744 56.2271 16.154 60.8251 16.154C63.0691 16.154 65.4231 15.076 67.0511 13.404L65.0051 11.182C63.9051 12.282 62.3871 12.986 61.0011 12.986C58.3611 12.986 56.3151 10.918 56.3151 8.234C56.3151 5.55 58.3611 3.504 61.0011 3.504C62.4311 3.504 63.9491 4.296 65.0051 5.506ZM69.8332 0.599999V16H73.3092V9.928H80.2832V16H83.7592V0.599999H80.2832V7.024H73.3092V0.599999H69.8332ZM87.8562 0.599999V16H99.8242V13.118H91.3322V9.708H98.7462V6.826H91.3322V3.482H99.5822V0.599999H87.8562ZM114.412 5.506L116.436 3.042C114.918 1.48 112.586 0.489999 110.364 0.489999C105.7 0.489999 102.158 3.834 102.158 8.278C102.158 12.744 105.634 16.154 110.232 16.154C112.476 16.154 114.83 15.076 116.458 13.404L114.412 11.182C113.312 12.282 111.794 12.986 110.408 12.986C107.768 12.986 105.722 10.918 105.722 8.234C105.722 5.55 107.768 3.504 110.408 3.504C111.838 3.504 113.356 4.296 114.412 5.506ZM133.54 16L127.358 7.024L133.144 0.599999H129.118L122.716 7.596V0.599999H119.24V16H122.716V12.194L124.938 9.73L129.36 16H133.54Z" fill="#34453C"/>
</svg>
