<svg width="22" height="22" viewBox="0 0 22 22" fill="none" xmlns="http://www.w3.org/2000/svg">
<path d="M16.8326 18.882L19.1186 16.5939C19.3979 16.3146 19.5547 15.9408 19.5547 15.5455C19.5547 15.1502 19.4 14.7764 19.1186 14.4971L16.6586 12.0328C16.3793 11.7535 16.0033 11.5967 15.608 11.5967C15.2105 11.5967 14.8389 11.7514 14.5574 12.0328L12.6303 13.9578C11.6085 13.5193 10.6801 12.8892 9.89531 12.1016C9.10254 11.3131 8.47734 10.3914 8.03476 9.36875L9.96191 7.44375C10.2412 7.16445 10.398 6.79062 10.398 6.39531C10.3988 6.20033 10.3606 6.00716 10.2857 5.82713C10.2108 5.6471 10.1007 5.48382 9.96191 5.34687L7.50195 2.88047C7.22266 2.60117 6.84668 2.44434 6.45137 2.44434C6.05391 2.44434 5.68223 2.59902 5.40078 2.88047L3.11484 5.16641C2.63789 5.64336 2.36504 6.30078 2.36504 6.97539C2.36504 7.11504 2.37578 7.25039 2.39941 7.38789C2.86777 10.2324 4.38242 13.0555 6.65976 15.335C8.94141 17.6123 11.7645 19.1248 14.6111 19.5975C15.4189 19.7328 16.2504 19.4621 16.8326 18.882ZM14.8668 18.0742C12.3338 17.6553 9.80723 16.2932 7.75547 14.2414C5.70371 12.1896 4.3416 9.66523 3.92266 7.13223C3.86895 6.81426 3.97637 6.48769 4.20625 6.25566L6.45137 4.01055L8.83398 6.39102L6.25586 8.96484L6.23652 8.98418L6.4084 9.44824C6.92573 10.8553 7.74284 12.1331 8.80309 13.1929C9.86334 14.2528 11.1414 15.0695 12.5486 15.5863L13.0127 15.7582L15.6059 13.1629L17.9885 15.5434L15.7434 17.7885C15.5113 18.0205 15.1848 18.1279 14.8668 18.0742Z" fill="#006738"/>
</svg>
