<svg width="22" height="22" viewBox="0 0 22 22" fill="none" xmlns="http://www.w3.org/2000/svg">
<path d="M3.92969 6.28592H18.0725M7.85826 6.28592V4.71449C7.85826 4.29773 8.02382 3.89803 8.31852 3.60333C8.61322 3.30863 9.01292 3.14307 9.42969 3.14307H12.5725C12.9893 3.14307 13.389 3.30863 13.6837 3.60333C13.9784 3.89803 14.144 4.29773 14.144 4.71449V6.28592M16.5011 6.28592V17.2859C16.5011 17.7027 16.3356 18.1024 16.0409 18.3971C15.7462 18.6918 15.3465 18.8573 14.9297 18.8573H7.07255C6.65578 18.8573 6.25608 18.6918 5.96138 18.3971C5.66668 18.1024 5.50112 17.7027 5.50112 17.2859V6.28592H16.5011Z" stroke="#959595" stroke-linecap="round" stroke-linejoin="round"/>
</svg>
